<svg xmlns="http://www.w3.org/2000/svg" width="512" height="512" viewBox="0 0 512 512"><defs><linearGradient id="grad1" x1="0%" y1="0%" x2="100%" y2="100%"><stop offset="0%" style="stop-color:#1CB5E0;stop-opacity:1" /><stop offset="100%" style="stop-color:#C850C0;stop-opacity:1" /></linearGradient></defs><path d="M256 40 C120 40 40 160 40 256 s80 216 216 216 216-120 216-216S392 40 256 40z" fill="url(#grad1)" opacity="0.9" /><path d="M160 170 h190 a40 40 0 0 1 40 40 v60 a40 40 0 0 1-40 40 h-90 l-40 30 v-30 h-60 a40 40 0 0 1-40-40 v-60 a40 40 0 0 1 40-40z" fill="#ffffff" /><circle cx="230" cy="245" r="18" fill="#1CB5E0" /><circle cx="300" cy="245" r="18" fill="#1CB5E0" /></svg>